<svg xmlns="http://www.w3.org/2000/svg" viewBox="0 0 512 512" width="512" height="512">
  <rect width="512" height="512" fill="#667eea"/>
  <g fill="white">
    <path d="M256 50c-113.7 0-206 92.3-206 206s92.3 206 206 206 206-92.3 206-206S369.7 50 256 50zm0 372c-91.5 0-166-74.5-166-166S164.5 90 256 90s166 74.5 166 166-74.5 166-166 166z"/>
    <path d="M256 130c-69.7 0-126 56.3-126 126s56.3 126 126 126 126-56.3 126-126-56.3-126-126-126zm0 212c-47.4 0-86-38.6-86-86s38.6-86 86-86 86 38.6 86 86-38.6 86-86 86z"/>
    <circle cx="256" cy="256" r="40"/>
  </g>
  <text x="256" y="440" font-family="Arial, sans-serif" font-size="80" font-weight="bold" fill="white" text-anchor="middle">🧳</text>
</svg>
